<svg xmlns="http://www.w3.org/2000/svg" width="79" height="141" viewBox="0 0 79 141">
    <defs>
        <linearGradient id="a" x1="88.876%" x2="24.42%" y1="88.485%" y2="44.506%">
            <stop offset="0%" stop-color="#56B9CE"/>
            <stop offset="55.83%" stop-color="#A0D8E3"/>
            <stop offset="100%" stop-color="#DAF0F4"/>
        </linearGradient>
    </defs>
    <g fill="none" fill-rule="evenodd">
        <path fill="#EDA8B0" d="M1.487 37.788l64.342-18.494 11.762 41.543L13.248 79.33z"/>
        <path fill="#3071B2" d="M1.453 37.655l64.349-18.487 11.847 41.867-64.348 18.487z"/>
        <path fill="#DEDEDE" d="M13.84 47.626L58.35 34.834l.542 1.913L14.381 49.54z" opacity=".6"/>
        <path fill="#DEDEDE" d="M2.218 18.773L55.266 3.526l12.779 45.136L14.997 63.91z"/>
        <path fill="#4A90E2" d="M28.997 1.261S23.69-1.925 20.57 3.717L1.327 37.57l64.431-18.387-36.76-17.922z"/>
        <path fill="#3071B2" d="M29.528 4.514s-4.711-2.788-7.432 2.124l-16.92 29.87L61.91 20.312 29.528 4.514z"/>
        <path fill="#FFF" d="M.76 17.711L53.808 2.463 66.587 47.6 13.539 62.847z"/>
        <path fill="#DEDEDE" d="M7.065 23.79l44.512-12.792.542 1.914L7.607 25.704zM8.732 29.774l44.511-12.792.542 1.914L9.273 31.688zM10.462 35.74l44.511-12.792.542 1.913-44.512 12.793zM12.173 41.642L56.685 28.85l.542 1.913-44.512 12.793z" opacity=".6"/>
        <path fill="#4A90E2" d="M40.145 39.562s-1.327.995-1.592 1.526c-.598 1.262-.797 5.908-.797 5.908l3.782 1.991 36.098 11.949-11.878-41.62-25.613 20.246zM33.443 42.947c-.53-.332-2.19-.465-2.19-.465l-29.86-4.779 11.878 41.62 21.897-28.079 2.124-3.717c-.067-.133-2.787-3.916-3.849-4.58z"/>
        <path fill="#3071B2" d="M48.904 41.221c-1.26-1.261-2.72-.796-2.72-.796l-9.755 2.721h-.066L26.675 46s-1.394.332-1.593 2.257l-11.81 31 31.186-9.028 33.178-9.293L48.904 41.22z"/>
        <g>
            <path fill="#405C96" d="M60.677 58.423l1.46-.332s-2.323-4.909-2.987-4.643c-.663.132 1.527 4.975 1.527 4.975z"/>
            <path fill="#E9F6F8" d="M66.453 41.374l-.73-.2s-.2.2-.93.399c-.73.132-.796.199-1.46.331a3.8 3.8 0 0 0-1.129.332s-.465-.398.266-.796c.863-.53 1.261-.597.93-.796-.2-.133-.864-.332-1.461-.597-.73-.266-2.125-.2-2.191-.2-.332-.066-.664-.33-.398-.53-.067-.265.132-.398.53-.398.399 0 2.457-.464 3.32-.332.73.067 1.527.266 1.925.398.531.2 1.129.597 1.129.597l1.062.597-.863 1.195z"/>
            <path fill="#002B6A" d="M55.433 48.804s2.522-.796 6.24.995c3.452 1.658 12.48.398 12.48.398l-8.032-8.492 1.328-2.056s7.767 4.909 10.09 8.624c2.324 3.715-.331 5.108-2.057 5.772-2.258.862-10.025 3.45-13.477 3.914-1.792-3.782-6.572-9.155-6.572-9.155zM.029 79.947L13.566 76.4l4.794 18.42-13.537 3.545z"/>
            <path fill="#002B6A" fill-rule="nonzero" d="M14.207 87.812l-.73-2.786c-.2-.863.265-1.725 1.128-1.924l1.527-.398c.863-.2 1.726.265 1.925 1.128l.73 2.786c.2.862-.265 1.725-1.128 1.924l-1.527.398c-.863.199-1.726-.332-1.925-1.128zm3.12-3.848a.853.853 0 0 0-1.062-.597l-1.527.398a.852.852 0 0 0-.598 1.062l.73 2.786a.853.853 0 0 0 1.063.597l1.527-.398a.852.852 0 0 0 .597-1.061l-.73-2.787z"/>
            <path fill="#E9F6F8" d="M19.85 82.505s.265.929.265 1.194c.067.53-.863 2.19-.996 3.649 0 .132-.464-.2-.398-.597.133-.531 0-1.128 0-1.128l-.863.597.133.398s-.2.066-.598.066c-.265.067-.398-.132-.464-.265 0-.133 0-.2-.133-.265-.2-.133-.2-.332-.2-.465a.7.7 0 0 0-.132-.332c-.133-.265-.067-.331-.067-.331s.465-.597.93-.929c.531-.464 1.527-1.061 1.527-1.061l.398-.664.598.133z"/>
            <path fill="#405C96" d="M8.232 87.48l-1.46-9.287.53-.133 1.527 9.288 3.32 9.088-.598.2z"/>
            <path fill="#FFF" d="M9.228 88.608l-.797.2c-.597.198-1.261-.2-1.394-.863-.133-.664.2-1.26.863-1.46l.797-.199.53 2.322z" opacity=".83"/>
            <path fill="#405C96" d="M25.293 91.46s2.656-2.786 12.48-3.25c9.295-.464 12.415-20.566 12.415-20.566S32.662 80.25 27.285 86.684c-1.46 1.725-1.992 4.777-1.992 4.777z"/>
            <path fill="#002B6A" d="M30.936 138.563l-.133 1.725 1.46.066v-.597l2.059.663h1.46s.2-.398-.132-.464c-.067 0-1.527-.53-1.527-.53l-.664-.73-2.523-.133zM46.736 137.236l-.066 1.526 1.46.066v-.597l2.058.663h1.527s.2-.398-.133-.464c-.066 0-1.527-.53-1.527-.53l-.796-.598-2.523-.066zM53.242 82.438s7.7-8.757 8.232-20.034c.398-8.625-6.771-14.197-6.771-14.197l-1.461 34.231z"/>
            <path fill="#FFF" d="M55.433 85.888s1.261-8.956 3.253-19.836c1.66-8.89-3.85-19.04-3.85-19.04l-4.648.664s-8.63 6.9-10.82 15.391c-1.329 5.175-1.86 11.344-1.86 11.344l-.132 11.145 18.057.332z"/>
            <path fill="#9ED7E3" d="M51.848 86.684s-.598-5.572 1.593-8.757c2.324-3.45 2.523-10.614 2.523-10.614s-.93 5.904-2.788 10.15c-1.86 4.246-1.992 9.155-1.992 9.155l.664.066zM50.188 47.742l-.464.332 3.186 4.18s1.793-.598 2.523-2.256c-3.253-.2-5.245-2.256-5.245-2.256z"/>
            <path fill="#002B6A" d="M49.724 48.074s9.958 15.325-2.457 25.077C27.285 88.807 24.032 94.247 24.032 94.247s-1.66-9.089 5.908-14.728c19.85-14.594 19.784-31.445 19.784-31.445z"/>
            <path fill="#002B6A" d="M37.044 75.34c.597-6.501-1.726-14.396-.332-21.627.53-.796 1.195-1.327 1.925-1.592 6.771-2.521 11.02-4.047 11.02-4.047s4.846 8.094-1.593 17.713c-6.44 9.487-9.294 8.823-11.02 9.553z"/>
            <path fill="#9ED7E3" d="M54.105 72.355s-1.859 4.312-3.452 7.23c-1.593 2.92-2.788 4.18-2.788 4.18s-2.523-.132-3.519.067c-1.062.199-2.124.663-2.124.663s.796-3.649 1.394-4.71c.531-1.062 1.66-1.858 1.66-1.858l2.92-2.52 5.909-3.052z"/>
            <path fill="#74428D" d="M55.765 49.998s.464.332.796 1.526c.067.663-.398 1.194-.398 1.194s1.992 4.18 1.66 9.818c-.531 8.69-9.826 18.841-9.826 18.841l-4.514.663.73-4.776s9.693-6.9 11.22-15.258c1.062-5.838-.133-9.09-.133-9.09s-.332-.198-1.129-.994c1.063-.73 1.594-1.924 1.594-1.924z"/>
            <path fill="#405C96" d="M48.728 50.064s2.589 3.782 1.062 5.905c1.062.73 1.992 1.326 1.992 1.326s-.532.796-1.793 1.99c.797 1.66 1.129 6.502-.133 10.15 4.382-5.904 2.855-12.339 1.992-15.125-.863-2.786-2.324-5.44-2.324-5.44l-.796 1.194z" opacity=".57"/>
            <path fill="url(#a)" d="M.398 11.676s.664-1.194.531-3.582C.797 5.772 3.32 5.97 3.32 5.97s1.063 1.99 1.328 3.184c.266 1.128 1.46 1.858 1.992 1.924 1.128.066 3.253.066 3.253.066s-3.32.796-4.183 2.521c-2.655.266-5.31-1.99-5.31-1.99z" transform="translate(49.79 36)"/>
            <path fill="#E9F6F8" d="M59.482 47.212c-.995 0-2.589 0-3.452-.067-1.261-.132-1.46-1.327-1.46-1.327l-.73-2.056s-.465-.2-.864-.664c-.132-.199-.464-1.127.465-1.525 1.394-.531.133-3.782.133-3.782l1.925-.597 1.726.863 3.12 4.643s0 .266-.332.332c-.398.066-.796.2-.796.2s.53 3.383.53 3.582c.067.199.134.398-.265.398z"/>
            <path fill="#172B5B" d="M58.287 41.042c0 .265-.066.265-.332.332-.265 0-1.062 0-.995-.067.066-.066.464-.265 1.195-.663.199-.133.132.133.132.398z"/>
            <path fill="#002B6A" d="M50.72 38.654c4.646-2.853 6.173-2.92 6.704-1.659.067.265.133.796-.199 1.128-1.593-.133-3.054-.066-2.589.929.067.331 1.726 3.847.465 3.98-.266-.464-1.129-1.725-2.058-1.194-.531.332.199 1.99-2.324 2.52-.199-1.99-.332-4.908 0-5.704zM49.325 136.904s-1.527.664-3.585.664c-.265-10.416-2.987-16.785-.132-25.01-.465-13.136-4.116-26.803-4.116-26.803l13.94.2-6.107 50.95z"/>
            <path fill="#405C96" d="M44.678 101.677l.266 2.853s2.058-5.44 2.124-8.823c0-4.71-2.39 5.97-2.39 5.97zM39.367 60.214s3.054-1.326.797 1.792c-1.527 2.056-3.452 4.378-3.452 4.378l-.2-1.924 2.855-4.246z"/>
            <path fill="#002B6A" d="M18.92 82.637l1.394 1.062L41.226 60.28l-4.647-6.303zM50.188 85.822L33.99 138.23s-2.523.597-3.386.53c.531-9.751 1.129-21.76 4.249-26.403 1.527-14.661 1.195-18.973 2.456-26.735 6.639.265 12.88.199 12.88.199z"/>
        </g>
    </g>
</svg>
