<svg xmlns="http://www.w3.org/2000/svg" xmlns:xlink="http://www.w3.org/1999/xlink" width="179" height="30" viewBox="0 0 179 30">
    <defs>
        <path id="a" d="M.086.112h16.037v15.503H.086z"/>
        <path id="c" d="M.05.112h16.037v15.503H.05z"/>
        <path id="e" d="M0 28.887h177.337V.15H0z"/>
    </defs>
    <g fill="none" fill-rule="evenodd">
        <path fill="#FFF" d="M65.7 28.492l-6.115-14.713h-3.453l-6.177 14.713h3.869l1.081-2.89h5.7l1.143 2.89H65.7zm-6.073-5.736h-3.703l1.872-5.05 1.83 5.05zM81.246 24.21c0-1.932-1.332-3.137-3.016-3.428v-.041c1.435-.479 2.412-1.56 2.412-3.18 0-2.972-2.725-3.782-5.013-3.782h-5.865v14.713h5.865c2.809 0 5.617-1.08 5.617-4.281m-4.036-6.172c0 1.039-.77 1.6-2.1 1.6h-1.914v-3.034h1.747c1.498 0 2.267.436 2.267 1.434m.479 5.84c0 1.433-1.373 1.745-2.496 1.745h-1.997v-3.367h1.976c1.518 0 2.517.395 2.517 1.622"/>
        <g transform="translate(85.66 13.272)">
            <mask id="b" fill="#fff">
                <use xlink:href="#a"/>
            </mask>
            <path fill="#FFF" d="M16.123 7.8c0-4.717-3.41-7.688-8.028-7.688C3.498.112.086 3.083.086 7.8c0 4.655 3.412 7.814 8.009 7.814 4.617 0 8.028-3.159 8.028-7.814m-3.806 0c0 2.66-1.747 4.572-4.222 4.572-2.476 0-4.202-1.912-4.202-4.572 0-2.577 1.705-4.489 4.202-4.489 2.495 0 4.222 1.912 4.222 4.489" mask="url(#b)"/>
        </g>
        <path fill="#FFF" d="M120.053 27.598v-7.793h-6.074v2.868h2.808v2.68c-.624.27-1.394.396-2.225.396-2.891 0-4.493-1.933-4.493-4.634 0-2.64 1.83-4.593 4.326-4.593 1.436 0 2.621.582 3.307 1.371l2.247-2.556c-1.227-1.184-3.37-1.953-5.678-1.953-4.493 0-7.988 3.013-7.988 7.73 0 4.635 3.39 7.752 8.091 7.752 2.268 0 4.244-.52 5.679-1.268M139.363 28.492l-6.116-14.713h-3.452l-6.178 14.713h3.869l1.082-2.89h5.698l1.144 2.89h3.953zm-6.074-5.736h-3.702l1.871-5.05 1.831 5.05zM156.8 21.093c0-5.569-4.243-7.314-8.424-7.314h-5.324v14.713h5.491c4.056 0 8.257-2.224 8.257-7.399m-3.702 0c0 3.284-2.35 4.323-4.888 4.323h-1.685v-8.603h1.768c2.455 0 4.805.977 4.805 4.28"/>
        <g transform="translate(161.25 13.272)">
            <mask id="d" fill="#fff">
                <use xlink:href="#c"/>
            </mask>
            <path fill="#FFF" d="M16.087 7.8c0-4.717-3.411-7.688-8.029-7.688C3.461.112.05 3.083.05 7.8c0 4.655 3.411 7.814 8.008 7.814 4.618 0 8.029-3.159 8.029-7.814m-3.807 0c0 2.66-1.747 4.572-4.222 4.572-2.475 0-4.201-1.912-4.201-4.572 0-2.577 1.705-4.489 4.201-4.489 2.496 0 4.222 1.912 4.222 4.489" mask="url(#d)"/>
        </g>
        <path fill="#FFF" d="M2.067 5.424L19.84.288l17.773 5.136v.846H2.067z"/>
        <mask id="f" fill="#fff">
            <use xlink:href="#e"/>
        </mask>
        <path fill="#FFF" d="M3.103 10.384h33.475V7.158H3.103zM2.068 24.935h35.547v-.887H2.068zM1.034 26.71H38.65v-.888H1.034zM0 28.485h39.683v-.888H0zM3.102 23.16h3.966l-.436-11.081.435-.808H3.102l.435.808zM10.479 23.16h3.966l-.436-11.081.435-.808h-3.965l.435.808zM17.857 23.16h3.966l-.437-11.081.436-.808h-3.965l.435.808zM25.235 23.16H29.2l-.436-11.081.435-.808h-3.965l.434.808zM32.612 23.16h3.967l-.437-11.081.435-.808h-3.964l.434.808zM61.808 6.844c-.515.776-1.511 1.443-2.901 1.443-2.343 0-4.04-1.717-4.04-4.068 0-2.352 1.73-4.069 4.04-4.069 1.138 0 2.222.47 2.758 1.225l-.656.481C60.68 1.353 59.903.84 58.918.84c-2.004 0-3.219 1.575-3.219 3.38 0 1.804 1.226 3.38 3.219 3.38.886 0 1.74-.35 2.277-1.149l.613.394zM75.261.84c-1.992 0-3.208 1.574-3.208 3.379s1.216 3.369 3.208 3.369c1.992 0 3.208-1.564 3.208-3.37 0-1.804-1.216-3.379-3.208-3.379m0 7.449c-2.31 0-4.04-1.718-4.04-4.07 0-2.35 1.73-4.068 4.04-4.068s4.04 1.717 4.04 4.069c0 2.351-1.73 4.069-4.04 4.069M95.04 6.942h.022V.347h.788v7.744h-.985l-4.51-6.661h-.022v6.66h-.789V.348h.985zM108.995 8.09h-.788V1.048h-2.595v-.7h5.978v.7h-2.595zM121.781 5.334h3.416l-1.708-4.112-1.708 4.112zm-1.138 2.757h-.865l3.35-7.744h.766l3.328 7.744h-.876l-.854-2.035h-4.006l-.843 2.035zM143.29 6.844c-.514.776-1.51 1.443-2.9 1.443-2.344 0-4.04-1.717-4.04-4.068 0-2.352 1.73-4.069 4.04-4.069 1.138 0 2.221.47 2.758 1.225l-.657.481c-.328-.503-1.106-1.017-2.09-1.017-2.004 0-3.22 1.575-3.22 3.38 0 1.804 1.227 3.38 3.22 3.38.886 0 1.74-.35 2.276-1.149l.613.394zM155.67 8.09h-.788V1.048h-2.595v-.7h5.978v.7h-2.595zM168.455 5.334h3.415l-1.708-4.112-1.707 4.112zm-1.139 2.757h-.865l3.35-7.744h.766l3.328 7.744h-.875l-.854-2.035h-4.007l-.843 2.035z" mask="url(#f)"/>
        <path d="M-2-1h181v31H-2z" mask="url(#f)"/>
    </g>
</svg>
