<svg xmlns="http://www.w3.org/2000/svg" width="93" height="67" viewBox="0 0 93 67">
    <g fill="none" fill-rule="evenodd">
        <path d="M-3-13h96v96H-3z"/>
        <g fill="#023957">
            <path d="M4.043 12.182L45.49 0l41.244 12.182v1.827H4.043zM6.065 16.242h77.837v7.513H6.065zM4.043 56.848h82.69v2.03H4.043zM2.022 60.909h87.541v2.03H2.022zM0 64.97h92.191V67H0zM6.065 54.21h9.3l-1.01-25.989 1.01-1.827h-9.3l1.011 1.827zM24.26 54.21h9.3L32.349 28.22l1.01-1.827h-9.097l1.01 1.827zM40.435 54.21h9.098L48.522 28.22l1.01-1.827h-9.097l1.01 1.827zM58.63 54.21h9.098l-1.01-25.989 1.01-1.827H58.63l1.011 1.827zM74.804 54.21h9.3l-1.01-25.989 1.01-1.827h-9.3l1.011 1.827z"/>
        </g>
    </g>
</svg>
