<svg xmlns="http://www.w3.org/2000/svg" width="178" height="30" viewBox="0 0 178 30">
    <g fill="none" fill-rule="evenodd">
        <path fill="#013957" fill-rule="nonzero" d="M59.912 22.923H56.18l1.91-5.036 1.823 5.036zm6.078 5.73L59.912 13.98H56.44l-6.165 14.674h3.907l1.042-2.866h5.731l1.129 2.866h3.907zM77.973 24.052c0 1.476-1.39 1.736-2.518 1.736h-1.997v-3.386h1.997c1.563 0 2.518.434 2.518 1.65zm-.434-5.818c0 1.042-.782 1.563-2.084 1.563h-1.91v-3.039h1.736c1.476 0 2.258.434 2.258 1.476zm3.994 6.165c0-1.91-1.303-3.126-3.04-3.386 1.477-.521 2.432-1.563 2.432-3.213 0-2.952-2.692-3.82-5.036-3.82H70.07v14.674h5.818c2.865 0 5.644-1.042 5.644-4.255zM98.204 21.273c0 2.692-1.737 4.602-4.255 4.602-2.431 0-4.168-1.91-4.168-4.602 0-2.605 1.737-4.515 4.168-4.515 2.605 0 4.255 1.91 4.255 4.515zm3.82 0c0-4.689-3.386-7.728-7.988-7.728s-7.988 2.953-7.988 7.728c0 4.689 3.386 7.815 7.988 7.815s7.988-3.213 7.988-7.815zM120.259 27.785v-7.814h-6.079v2.865h2.779v2.692c-.608.26-1.39.434-2.258.434-2.865 0-4.515-1.91-4.515-4.602 0-2.605 1.824-4.602 4.342-4.602 1.476 0 2.605.608 3.3 1.39l2.257-2.519c-1.216-1.215-3.386-1.91-5.644-1.91-4.515 0-7.988 3.039-7.988 7.728 0 4.602 3.386 7.728 8.075 7.728 2.344-.174 4.341-.695 5.73-1.39M133.543 22.923h-3.733l1.91-5.036 1.823 5.036zm5.992 5.73l-6.078-14.673h-3.474l-6.164 14.674h3.907l1.042-2.866h5.73l1.13 2.866h3.907zM153.34 21.273c0 3.3-2.344 4.342-4.862 4.342h-1.737v-8.596h1.737c2.431 0 4.862.955 4.862 4.254zm3.647 0c0-5.557-4.254-7.293-8.422-7.293h-5.297v14.674h5.47c4.082 0 8.25-2.171 8.25-7.38zM173.745 21.273c0 2.692-1.736 4.602-4.254 4.602-2.431 0-4.168-1.91-4.168-4.602 0-2.605 1.737-4.515 4.168-4.515 2.518 0 4.254 1.91 4.254 4.515zm3.734 0c0-4.689-3.386-7.728-7.988-7.728s-7.989 2.953-7.989 7.728c0 4.689 3.387 7.815 7.989 7.815s7.988-3.213 7.988-7.815z"/>
        <path fill="#013957" d="M2.431 5.644l17.8-5.21 17.713 5.21v.781H2.431zM3.473 7.294h33.43v3.212H3.472zM2.431 24.225h35.513v.869H2.431zM1.39 25.962h37.596v.868H1.39zM.347 27.785h39.594v.869H.347zM3.473 23.357h3.994l-.434-11.114.434-.782H3.473l.434.782zM10.854 23.357h3.994l-.521-11.114.434-.782h-3.907l.434.782zM18.234 23.357h3.907l-.434-11.114.434-.782h-3.907l.434.782zM25.615 23.357h3.907l-.434-11.114.434-.782h-3.907l.434.782zM32.908 23.357h3.994l-.434-11.114.434-.782h-3.994l.434.782z"/>
        <path fill="#A7A9AC" fill-rule="nonzero" d="M62.083 7.033c-.521.782-1.476 1.476-2.865 1.476-2.345 0-3.995-1.736-3.995-4.08 0-2.345 1.737-4.082 3.995-4.082 1.128 0 2.257.434 2.778 1.216l-.695.52c-.347-.52-1.128-1.041-2.083-1.041-1.998 0-3.213 1.563-3.213 3.386 0 1.824 1.215 3.387 3.213 3.387.868 0 1.736-.348 2.257-1.13l.608.348zM75.541 8.422c-2.344 0-3.994-1.736-3.994-4.08 0-2.345 1.737-4.082 3.994-4.082 2.345 0 3.995 1.737 3.995 4.081 0 2.345-1.65 4.081-3.995 4.081zm0-7.38c-1.997 0-3.212 1.563-3.212 3.386 0 1.824 1.215 3.387 3.212 3.387 1.998 0 3.213-1.563 3.213-3.387 0-1.823-1.215-3.386-3.213-3.386zM95.339 7.12V.521h.781v7.728h-.955L90.65 1.563v6.686h-.782V.52h.955zM109.231 8.249h-.781V1.216h-2.605V.52h5.991v.695h-2.605v7.033zM120.866 8.249h-.868l3.3-7.728h.781l3.3 7.728h-.869l-.868-1.997h-3.994l-.782 1.997zm1.13-2.692h3.385l-1.736-4.08-1.65 4.08zM143.529 7.033c-.521.782-1.476 1.476-2.866 1.476-2.344 0-3.994-1.736-3.994-4.08 0-2.345 1.737-4.082 3.994-4.082 1.13 0 2.258.434 2.779 1.216l-.695.52c-.347-.52-1.128-1.041-2.084-1.041-1.997 0-3.212 1.563-3.212 3.386 0 1.824 1.215 3.387 3.212 3.387.869 0 1.737-.348 2.258-1.13l.608.348zM155.859 8.249h-.782V1.216h-2.605V.52h5.991v.695h-2.604zM167.494 8.249h-.869l3.3-7.728h.781l3.3 7.728h-.868l-.869-1.997h-3.994l-.781 1.997zm1.128-2.692h3.387l-1.737-4.08-1.65 4.08z"/>
        <path d="M-19-17h216v64H-19z"/>
    </g>
</svg>
