<svg xmlns="http://www.w3.org/2000/svg" xmlns:xlink="http://www.w3.org/1999/xlink" width="128" height="120" viewBox="0 0 128 120">
    <defs>
        <path id="a" d="M0 0h40v43.333H0z"/>
        <path id="c" d="M.073.11h18.352v22.799H.073z"/>
        <path id="e" d="M0 .005h39.911v18.012H0z"/>
    </defs>
    <g fill="none" fill-rule="evenodd">
        <rect width="128" height="120" fill="#FFF" rx="4"/>
        <text fill="#969696" font-family="Lato-Regular, Lato" font-size="14">
            <tspan x="36.395" y="94">Abogado </tspan>
        </text>
        <g transform="translate(44 29)">
            <mask id="b" fill="#fff">
                <use xlink:href="#a"/>
            </mask>
            <g mask="url(#b)">
                <g transform="translate(10.652 .003)">
                    <mask id="d" fill="#fff">
                        <use xlink:href="#c"/>
                    </mask>
                    <path fill="#969696" d="M.073 13.281c.283 3.691 1.76 2.1 2.065 3.718.507 2.689 2.902 4.633 4.394 5.305.87.392 1.765.589 2.707.604h.02a6.77 6.77 0 0 0 2.708-.604c1.49-.672 3.886-2.616 4.393-5.305.305-1.618 1.782-.027 2.065-3.718 0-1.471-.806-1.837-.806-1.837s.41-2.177.57-3.853C18.388 5.503 16.963.11 9.36.11l-.097.002h-.026L9.139.11C1.536.11.11 5.503.31 7.591c.16 1.676.57 3.853.57 3.853s-.806.366-.806 1.837" mask="url(#d)"/>
                </g>
                <g transform="translate(0 25.452)">
                    <mask id="f" fill="#fff">
                        <use xlink:href="#e"/>
                    </mask>
                    <path fill="#969696" d="M37.15 5.953c-3.836-1.939-9.395-4.36-9.662-4.446l-.008-.002a1.494 1.494 0 0 0-1.908.907.01.01 0 0 1-.004-.002c-.99 2.37-2.808 6.596-3.937 8.634L21.36 5.33s1.696-3.576 1.882-3.904c.436-.768.043-1.422-.776-1.422h-5.019c-.819 0-1.212.654-.776 1.422.186.328 1.882 3.904 1.882 3.904l-.272 5.713c-1.13-2.038-2.948-6.263-3.937-8.634a.01.01 0 0 1-.004.001 1.495 1.495 0 0 0-1.908-.906c-.003 0-.005 0-.008.002-.267.085-5.826 2.507-9.661 4.446C1.039 6.823 0 7.907 0 9.046v8.97h39.911v-8.97c0-1.14-1.04-2.222-2.762-3.093" mask="url(#f)"/>
                </g>
            </g>
        </g>
    </g>
</svg>
