<svg xmlns="http://www.w3.org/2000/svg" xmlns:xlink="http://www.w3.org/1999/xlink" width="128" height="120" viewBox="0 0 128 120">
    <defs>
        <path id="a" d="M0 0h70v35H0z"/>
    </defs>
    <g fill="none" fill-rule="evenodd">
        <rect width="128" height="120" fill="#106C9D" rx="4"/>
        <text fill="#FFF" font-family="Lato-Regular, Lato" font-size="14">
            <tspan x="33.379" y="94">Despacho</tspan>
        </text>
        <g transform="translate(29 37)">
            <mask id="b" fill="#fff">
                <use xlink:href="#a"/>
            </mask>
            <path fill="#FFF" d="M48.808 25.264c-3.089-1.566-7.566-3.521-7.78-3.59-.003 0-.005 0-.007-.002a1.204 1.204 0 0 0-1.537.732l-.003-.001c-.797 1.914-2.262 5.325-3.171 6.97l-.22-4.612s1.367-2.887 1.516-3.152c.352-.62.035-1.147-.625-1.147H32.94c-.66 0-.976.527-.625 1.147.15.265 1.516 3.152 1.516 3.152l-.22 4.612c-.909-1.645-2.373-5.056-3.17-6.97a.015.015 0 0 1-.003.001 1.204 1.204 0 0 0-1.537-.732l-.007.002c-.215.069-4.692 2.024-7.78 3.59-1.388.702-2.225 1.577-2.225 2.497v7.242h32.145V27.76c0-.92-.838-1.795-2.225-2.497M27.526 10.634c.227 2.98 1.417 1.696 1.663 3.002.408 2.17 2.337 3.74 3.538 4.283.7.316 1.422.475 2.18.487v.001h.017a5.44 5.44 0 0 0 2.18-.488c1.202-.543 3.131-2.113 3.54-4.283.245-1.306 1.435-.022 1.662-3.002 0-1.188-.65-1.483-.65-1.483s.331-1.758.46-3.11C42.276 4.355 41.13 0 35.005 0l-.079.002h-.021L34.828 0c-6.125 0-7.273 4.355-7.112 6.04.129 1.353.46 3.11.46 3.11s-.65.296-.65 1.484M50.396 10.717c.19 2.48 1.18 1.411 1.384 2.498.34 1.806 1.945 3.113 2.945 3.564a4.526 4.526 0 0 0 1.815.406H56.553a4.53 4.53 0 0 0 1.815-.406c1-.451 2.605-1.758 2.945-3.564.204-1.087 1.194-.018 1.384-2.498 0-.989-.54-1.234-.54-1.234s.274-1.463.382-2.589c.133-1.403-.823-5.027-5.919-5.027l-.065.002h-.017l-.065-.002c-5.097 0-6.052 3.624-5.919 5.027.108 1.126.383 2.589.383 2.589s-.541.245-.541 1.234" mask="url(#b)"/>
            <path fill="#FFF" d="M68.108 22.892c-2.571-1.303-6.297-2.93-6.476-2.988l-.005-.001a1.002 1.002 0 0 0-1.279.61l-.003-.002c-.663 1.593-1.882 4.432-2.639 5.8l-.182-3.838s1.137-2.402 1.261-2.622c.293-.516.029-.956-.52-.956h-3.364c-.549 0-.812.44-.52.956.125.22 1.261 2.622 1.261 2.622l-.182 3.839c-.757-1.37-1.976-4.208-2.639-5.801l-.002.001a1.002 1.002 0 0 0-1.28-.609l-.005.001c-.159.051-3.128 1.346-5.59 2.548.366.17.733.343 1.099.516.788.373 1.574.753 2.352 1.147 1.41.715 2.931 1.915 2.931 3.646v3.236H69.96V24.97c0-.766-.697-1.493-1.851-2.078M7.188 10.717c.19 2.48 1.18 1.411 1.384 2.498.34 1.806 1.946 3.113 2.945 3.564a4.527 4.527 0 0 0 1.815.406H13.345a4.53 4.53 0 0 0 1.815-.406c1-.451 2.605-1.758 2.945-3.564.204-1.087 1.195-.018 1.384-2.498 0-.989-.54-1.234-.54-1.234s.274-1.463.382-2.589c.133-1.403-.822-5.027-5.918-5.027l-.066.002h-.017l-.065-.002c-5.096 0-6.052 3.624-5.918 5.027.107 1.126.382 2.589.382 2.589s-.54.245-.54 1.234M22.878 22.968c.373-.177.746-.351 1.12-.525-2.46-1.2-5.415-2.488-5.573-2.539l-.006-.001a1.002 1.002 0 0 0-1.279.61l-.002-.002c-.664 1.593-1.883 4.432-2.64 5.8l-.181-3.838s1.136-2.402 1.26-2.622c.293-.516.03-.956-.52-.956h-3.363c-.55 0-.813.44-.52.956.124.22 1.26 2.622 1.26 2.622l-.181 3.839c-.757-1.37-1.976-4.208-2.64-5.801l-.002.001a1.002 1.002 0 0 0-1.279-.609l-.005.001c-.18.058-3.905 1.685-6.476 2.988C.697 23.477 0 24.204 0 24.97v6.027h17.594V27.76c0-1.731 1.521-2.931 2.932-3.646a97.613 97.613 0 0 1 2.352-1.147" mask="url(#b)"/>
        </g>
    </g>
</svg>
